<?xml version="1.0" encoding="UTF-8"?>
<svg width="16px" height="16px" viewBox="0 0 16 16" version="1.1" xmlns="http://www.w3.org/2000/svg" xmlns:xlink="http://www.w3.org/1999/xlink">
    <title>我的_icon_提现</title>
    <defs>
        <rect id="path-1" x="0" y="0" width="16" height="16"></rect>
    </defs>
    <g id="我的_icon_提现" stroke="none" stroke-width="1" fill="none" fill-rule="evenodd">
        <mask id="mask-2" fill="white">
            <use xlink:href="#path-1"></use>
        </mask>
        <g id="蒙版"></g>
        <g id="编组" mask="url(#mask-2)" fill="#FFFFFF">
            <g transform="translate(1, 1)">
                <path d="M12.5,0 C13.3284271,-1.52179594e-16 14,0.671572875 14,1.5 L14,3.49423465 C14,4.16084507 13.5651608,4.72589335 12.9636604,4.92120141 L12.9690401,4.8210473 L12.9690401,2.37006072 C12.9690401,1.81777597 12.5213248,1.37006072 11.9690401,1.37006072 L2.03095992,1.37006072 C1.47867517,1.37006072 1.03095992,1.81777597 1.03095992,2.37006072 L1.03095992,4.71283495 C1.03095992,4.78614708 1.03884902,4.85761662 1.05382459,4.92644093 C0.443618718,4.73723452 8.24562386e-17,4.16754093 0,3.49423465 L0,1.5 C-1.01453063e-16,0.671572875 0.671572875,1.52179594e-16 1.5,0 L12.5,0 Z" id="矩形-2" opacity="0.5"></path>
                <path d="M11.2767368,2.18374171 C11.8290216,2.18374171 12.2767368,2.63145696 12.2767368,3.18374171 L12.2767368,12.1850678 C12.2767368,13.1791803 11.4708494,13.9850677 10.4767369,13.9850677 L3.52326314,13.9850677 C2.52915062,13.9850677 1.72326319,13.1791803 1.72326319,12.1850678 L1.72326319,3.18374171 C1.72326319,2.63145696 2.17097844,2.18374171 2.72326319,2.18374171 L11.2767368,2.18374171 Z M9.09776165,5.18007249 C8.9654235,5.18007249 8.84034144,5.22977498 8.74426167,5.32210008 L7.12904043,6.90389272 L5.51380815,5.32208906 C5.41954517,5.23155872 5.29446309,5.18007249 5.16030818,5.18007249 C5.02797003,5.18007249 4.90288797,5.22977498 4.80680822,5.32210008 C4.61283192,5.51205745 4.61283192,5.82272562 4.80680822,6.01269401 L6.54712254,7.71698119 L5.2817567,7.71698119 C5.00802958,7.71698119 4.7832342,7.93711903 4.7832342,8.20518661 C4.7832342,8.4732542 5.00620179,8.69340305 5.2817567,8.69340305 L6.6304959,8.69340305 L6.6304959,9.20290327 L5.28176771,9.20290327 C5.00622382,9.20290327 4.78324522,9.42481382 4.78324522,9.69288141 C4.78324522,9.96096002 5.00621281,10.1810979 5.28176771,10.1810979 L6.63050692,10.1810979 L6.63050692,11.0279122 C6.63050692,11.2959908 6.85348552,11.5161287 7.12904043,11.5161287 C7.40458432,11.5161287 7.62756292,11.2977636 7.62394038,11.0261395 L7.62394038,10.1793251 L8.92554258,10.1793251 C9.19928071,10.1793251 9.42407609,9.9591873 9.42407609,9.69110869 C9.42407609,9.42304108 9.20109749,9.20290327 8.92554258,9.20290327 L7.62394038,9.20290327 L7.62394038,8.69339204 L8.92917613,8.69339204 C9.20290324,8.69339204 9.42769862,8.4732542 9.42769862,8.2051756 C9.42769862,7.93711901 9.20473103,7.71698118 8.92917613,7.71698119 L7.71094729,7.71698119 L9.45126162,6.01268301 C9.64523792,5.82272564 9.64523792,5.51205747 9.45126162,5.32208906 C9.35699864,5.23155872 9.23191656,5.18007249 9.09776165,5.18007249 Z" id="矩形-3"></path>
            </g>
        </g>
    </g>
</svg>